<?xml version="1.0" encoding="UTF-8"?>
<svg id="Layer_1" data-name="Layer 1" xmlns="http://www.w3.org/2000/svg" viewBox="0 0 112.07 149.26">
  <defs>
    <style>
      .cls-1 {
        fill: #daff9f;
      }

      .cls-1, .cls-2 {
        stroke-width: 0px;
      }

      .cls-3 {
        opacity: .75;
      }

      .cls-2 {
        fill: #3a9400;
      }
    </style>
  </defs>
  <g class="cls-3">
    <path class="cls-2" d="M23.57,85.42c-3.78-7.96-7.61-16.13-8.37-24.9s2.21-18.42,9.56-23.28c3.27-2.16,7.14-3.23,10.46-5.31,6.76-4.22,10.35-11.89,14.6-18.63S60.44-.12,68.41,0c6.24.1,11.59,4.37,17.64,5.92,4.75,1.22,10.2.89,13.96,4.04,3.71,3.11,4.39,8.59,3.84,13.41s-2.04,9.59-1.59,14.41c1.06,11.43,12.72,21.53,9.12,32.43-.98,2.97-3.01,5.46-5.13,7.75-11.99,12.99-28.22,21.99-45.59,25.29-4.01.76-8.19,1.22-12.16.29-10.42-2.46-16.32-13.36-25.25-19.27"/>
    <g>
      <path class="cls-1" d="M57.22,48.03c-6.45,17.94-27.78,25.29-39.91,40-5.29,6.41-8.73,14.14-11.72,21.89-4.14,10.7-7.05,24.26.95,32.49,4.11,4.23,10.39,5.89,16.25,5.25s11.33-3.35,16.11-6.8c10.99-7.92,18.76-19.72,23.65-32.35,4.89-12.63,7.09-26.14,8.57-39.6.54-4.88.97-9.95-.66-14.58s-5.89-8.7-10.8-8.51c-.8,1.57-1.6,3.13-2.4,4.7"/>
      <path class="cls-1" d="M55.78,47.63c-5.32,14.55-20.61,22.12-31.76,31.61-3.01,2.56-5.86,5.31-8.32,8.41-2.99,3.76-5.41,7.9-7.47,12.23-3.76,7.9-7.2,16.43-8.07,25.21-.8,8.04,1.41,16.48,8.59,21.02,7.93,5.02,17.9,3.5,25.79-.72,16.47-8.81,26.68-26.39,31.97-43.74,3.04-9.97,4.68-20.3,5.88-30.63,1.02-8.76,1.94-20.17-7.09-25.24-1.73-.97-3.65-1.47-5.63-1.44-.51,0-1.06.27-1.3.74-.8,1.57-1.6,3.13-2.4,4.7-.87,1.72,1.71,3.24,2.59,1.51.8-1.57,1.6-3.13,2.4-4.7l-1.3.74c3.93-.07,7.09,2.75,8.79,6.11,2.13,4.21,1.79,9.33,1.34,13.88-.98,9.84-2.44,19.7-4.97,29.27-4.44,16.78-12.92,33.52-27.56,43.6-7.08,4.88-16.28,8.19-24.65,4.57-3.56-1.54-6.41-4.3-8.01-7.84-1.51-3.34-1.79-7.12-1.54-10.74.57-8.25,3.86-16.37,7.29-23.8,1.92-4.16,4.14-8.21,6.9-11.88,2.25-2.99,4.91-5.65,7.71-8.12,10.61-9.35,24.45-16.24,31.49-29.03.87-1.58,1.6-3.23,2.22-4.92.66-1.82-2.23-2.6-2.89-.8h0Z"/>
    </g>
  </g>
</svg>