<?xml version="1.0" encoding="UTF-8"?>
<svg id="Layer_1" data-name="Layer 1" xmlns="http://www.w3.org/2000/svg" viewBox="0 0 143.41 141.46">
  <defs>
    <style>
      .cls-1 {
        fill: #fcee46;
      }

      .cls-1, .cls-2 {
        stroke-width: 0px;
      }

      .cls-2 {
        fill: #fffbc9;
      }
    </style>
  </defs>
  <path class="cls-1" d="M.83,47c.29,14.59.61,29.35,4.46,43.43,3.84,14.08,11.64,27.62,23.97,35.44,13.75,8.72,30.94,9.23,47.2,10.06,19.75,1,39.45,2.84,59.04,5.53,4.77-25.84,6.59-52.22,5.41-78.47-.26-5.78-.8-11.94-4.32-16.53"/>
  <path class="cls-2" d="M38.37,6.13C22.86,15.77,9.87,29.18.92,44.8c-.51.88-1.01,1.84-.91,2.84.2,1.93,2.43,2.93,4.34,3.5,17.33,5.16,35.66,6.14,53.78,6.66,16.41.47,32.83.59,49.25.36,7.14-.1,14.31-.27,21.37-1.36,5.17-.8,11.17-2.95,12.27-7.91.55-2.5-.36-5.09-1.49-7.4-4.69-9.58-13.18-16.9-22.14-22.97-11.81-8-24.99-14.35-39.1-17.11S52.42-.16,39.44,5.88"/>
  <path class="cls-2" d="M3.1,76.46c46.08,10.23,93.11,16.26,140.3,17.99-.98,8.79-2.35,17.54-4.1,26.22-14.63,1.4-29.31-1.31-43.75-4.02-28.35-5.31-56.69-10.62-85.04-15.93-1.29-.24-2.66-.53-3.58-1.46-.78-.79-1.08-1.92-1.35-2.99-1.42-5.61-2.85-11.22-4.27-16.83"/>
</svg>