<?xml version="1.0" encoding="UTF-8"?>
<svg id="Layer_1" data-name="Layer 1" xmlns="http://www.w3.org/2000/svg" viewBox="0 0 151.61 102.98">
  <defs>
    <style>
      .cls-1 {
        fill: #f7c6a4;
      }

      .cls-1, .cls-2 {
        stroke-width: 0px;
      }

      .cls-2 {
        fill: #f7e6c0;
      }
    </style>
  </defs>
  <g>
    <path class="cls-2" d="M65.05,24.18c2-6.11,7.15-9.5,14-14,4.55-2.99,12.92-8.5,24.71-8.68,10.64-.16,18.19,4.14,26.29,8.68,5.94,3.32,10.85,6.14,14.79,12.08,1.72,2.59,6.59,9.67,4.95,18.13-1.36,6.97-6.1,11.45-15.5,18.56-23.9,18.09-35.85,27.13-43.24,24.24-3.77-1.48-3.62-3.62-14.91-26.89-10.02-20.65-13.27-25.44-11.09-32.11Z"/>
    <path class="cls-2" d="M66.49,24.58c1.55-4.57,5.32-7.66,9.16-10.32,3.44-2.39,6.96-4.77,10.69-6.7,9.65-5,20.71-5.97,30.93-2.1,4.92,1.86,9.52,4.57,14.07,7.17s8.72,5.44,11.73,9.7c2.32,3.28,4.31,6.85,5.15,10.82.96,4.51.12,9.17-2.4,13.02-2.71,4.14-6.88,7.32-10.75,10.31-4.9,3.78-9.86,7.49-14.83,11.16-3.82,2.82-7.67,5.61-11.65,8.2-2.85,1.85-5.79,3.67-8.93,5-2.09.88-4.08,1.47-6.18,1.37-.52-.02-.42,0-1.02-.15-.42-.1-.83-.24-1.23-.4.52.21-.22-.12-.36-.19-.2-.11-.39-.24-.59-.37.43.3-.16-.15-.3-.29-.14-.14-.66-.79-.41-.45-.43-.58-.8-1.19-1.15-1.82-1.25-2.24-2.3-4.6-3.39-6.92-4.45-9.52-9.06-18.96-13.66-28.41-1.56-3.2-3.17-6.41-4.36-9.77-.78-2.2-1.27-4.05-1.1-6.27.05-.69.25-1.63.56-2.58.59-1.84-2.3-2.63-2.89-.8-1.71,5.3.33,10.41,2.51,15.25,4.53,10.07,9.68,19.85,14.37,29.85,1.46,3.12,2.88,6.27,4.42,9.36.78,1.55,1.58,3.16,2.75,4.45,2.48,2.75,6.62,2.89,9.97,2.01,3.03-.8,5.89-2.3,8.59-3.87,3.88-2.26,7.58-4.84,11.23-7.46,4.89-3.51,9.69-7.14,14.49-10.77s9.82-7.11,13.86-11.56c3.07-3.39,5.17-7.35,5.7-11.93.6-5.19-1.01-10.34-3.59-14.81-2.35-4.08-5.32-7.63-9.09-10.47-4.36-3.26-9.37-5.85-14.2-8.33-5.13-2.63-10.49-4.65-16.25-5.29-5.86-.65-11.89.14-17.43,2.1-4.16,1.47-8.02,3.57-11.71,5.97-4.23,2.76-8.85,5.5-12.15,9.4-1.53,1.82-2.69,3.83-3.45,6.09-.62,1.83,2.28,2.62,2.89.8Z"/>
  </g>
  <g>
    <path class="cls-1" d="M121.47,30.32c-18.89-9.06-18.06-18.41-35.8-23.84-4.55-1.39-25.16-7.02-41.94,2.96-5.96,3.54-10.91,8.54-15.68,13.58-4.77,5.04-5.11,7.57-10.53,13.34-6.41,6.83-8.55,6.76-11.47,10.83C-.34,56.11,1.79,67.86,2.05,69.18c3.99,20.42,37.33,36.71,64.5,31.19,14.33-2.91,24.02-11.29,33.82-19.77,1.98-1.71,9.39-11.72,24.22-31.73,1.97-2.66,5.35-7.35,4.01-11.86-1.17-3.92-5.35-5.85-7.12-6.7Z"/>
    <path class="cls-1" d="M122.23,29.02c-5.93-2.87-11.15-6.55-15.93-11.06-3.78-3.57-7.5-7.16-12.12-9.63-8.71-4.65-19.49-6.48-29.28-6.17-6.82.22-13.62,1.66-19.72,4.76-6.88,3.49-12.47,9.01-17.73,14.55-4.41,4.63-7.49,10.25-11.97,14.84-1.93,1.98-3.99,3.78-6.16,5.5-1.56,1.23-2.98,2.51-4.19,4.1C1.39,50.84-.05,57.17,0,63.27c.03,3.82.6,7.57,2.09,11.1,4.29,10.2,14.09,17.43,23.85,21.95,11.34,5.25,24.29,7.76,36.75,6.19,6.95-.88,13.6-3.09,19.71-6.52s11.23-7.63,16.38-12.04c2.19-1.88,4-3.66,5.79-5.91,2.7-3.4,5.3-6.87,7.9-10.35,4.25-5.68,8.46-11.37,12.68-17.07,1.96-2.65,3.99-5.36,4.86-8.6s.18-6.55-2.06-9.09c-1.55-1.75-3.62-2.92-5.71-3.92-1.73-.83-3.26,1.76-1.51,2.59,1.97.94,4.01,2,5.38,3.77,2.06,2.66,1.32,5.97-.15,8.71-1.62,3.02-3.89,5.71-5.93,8.45s-4.17,5.62-6.25,8.43c-3.01,4.05-6.02,8.1-9.1,12.11-1.53,2-3.04,4.06-4.77,5.89-1.33,1.41-2.93,2.61-4.41,3.86-2.46,2.09-4.96,4.13-7.57,6.03-5.43,3.94-11.33,7.22-17.8,9.09-11.78,3.41-24.6,2.27-36.12-1.63-10.03-3.4-20.29-9.26-26.4-18.16-5-7.28-5.96-16.54-3.03-24.89.89-2.53,2.24-4.99,4.11-6.93,1.3-1.36,2.85-2.45,4.3-3.64,4.73-3.89,8.55-8.51,12.02-13.52,1.76-2.55,3.8-4.8,5.95-7.03,2.62-2.71,5.31-5.35,8.24-7.72,5.47-4.42,11.77-7.32,18.69-8.55,9.16-1.64,18.96-.61,27.81,2.18,5.32,1.68,10.06,4.31,14.22,8.02,3.91,3.49,7.52,7.24,11.81,10.29,2.84,2.02,5.87,3.73,9,5.25,1.73.84,3.25-1.75,1.51-2.59Z"/>
  </g>
</svg>