<?xml version="1.0" encoding="UTF-8"?>
<svg id="Layer_1" data-name="Layer 1" xmlns="http://www.w3.org/2000/svg" viewBox="0 0 259.85 131.48">
  <defs>
    <style>
      .cls-1 {
        fill: #fbb03b;
      }

      .cls-1, .cls-2 {
        stroke-width: 0px;
      }

      .cls-2 {
        fill: #f7931e;
      }
    </style>
  </defs>
  <path class="cls-2" d="M219.52,78.68C188.09,19.88,102.37-4.36,42.87,15,33.58,18.02,1.73,27.54.82,47.04c-.42,9.07,4.39,17.52,9.65,24.92,20.07,28.22,52.44,50.77,86.95,47.87,30.05-2.53,54.96-23.11,79-41.32,24.04-18.2,52.65-35.68,82.36-30.55-3.11.97-17.12,5.7-25.64,20.58-8.52,14.88-5.5,29.36-4.76,32.53-1.29-4.74-3.87-13.02-8.87-22.38Z"/>
  <g>
    <path class="cls-1" d="M71.57,8.86c-11.7.01-40.17,1.65-59.58,20.85C2.76,38.84,1.76,45.82,1.56,47.59c-.34,2.99-.69,11.81,16.38,31.28,6.96,7.94,18.04,19.03,34.26,29.79,5.76-4.46,20.3-16.97,26.81-38.73,9.21-30.78-4.75-56.35-7.45-61.07Z"/>
    <path class="cls-1" d="M71.57,7.36c-9.89.02-19.85,1.17-29.38,3.84-13.29,3.73-26.12,10.7-34.96,21.5C2.91,37.97-.83,44.61.16,51.64c.49,3.46,1.87,6.77,3.47,9.86,3.04,5.87,7.11,11.2,11.36,16.23,9.05,10.72,19.51,20.2,30.9,28.39,1.83,1.31,3.68,2.59,5.56,3.84.61.4,1.31.16,1.82-.23,10.95-8.5,19.61-19.85,24.84-32.69,7.04-17.31,7.09-36.74,1.2-54.37-1.68-5.03-3.81-9.95-6.43-14.56-.96-1.68-3.55-.17-2.59,1.51,5.88,10.32,9.4,22.18,10.18,34.01,1.23,18.5-4.69,36.95-16.38,51.33-3.81,4.68-8.16,8.93-12.93,12.64l1.82-.23c-11.76-7.83-22.6-17.01-32.1-27.47-4.52-4.98-8.84-10.22-12.39-15.95-2.12-3.41-4.05-7.05-5.01-10.98-.44-1.8-.62-3.21-.42-5.25.01-.11.07-.54.04-.32-.03.19.07-.42.1-.57.14-.72.32-1.43.54-2.12.7-2.25,1.8-4.36,3.08-6.35,7.28-11.36,19.88-18.96,32.46-23.1,9.61-3.17,19.72-4.63,29.82-4.85.83-.02,1.66-.03,2.5-.03,1.93,0,1.93-3,0-3Z"/>
  </g>
  <g>
    <path class="cls-1" d="M73.3,8.08c14.33.78,28.76-.42,42.76-3.57,5.36-1.2,10.7-2.7,16.19-2.92.53-.02,1.12,0,1.49.37.46.46.36,1.21.24,1.84-.66,3.35-1.32,6.7-1.98,10.05-18.84-4.46-38.32-6.21-57.65-5.15"/>
    <path class="cls-1" d="M73.3,9.58c9.42.5,18.88.17,28.24-1.02,4.61-.59,9.2-1.36,13.74-2.34s9.06-2.28,13.69-2.86c.62-.08,1.24-.14,1.87-.19.45-.04,1.36.11,1.73-.09.45-.24-.08.47.02-.19-.02.17-.03.34-.05.5-.09.64-.25,1.28-.38,1.91-.54,2.71-1.07,5.42-1.61,8.14l1.85-1.05c-18.98-4.47-38.57-6.24-58.05-5.21-1.92.1-1.93,3.1,0,3,19.22-1.02,38.51.68,57.25,5.1.74.18,1.68-.23,1.85-1.05.5-2.55,1.01-5.11,1.51-7.66.36-1.84,1.4-4.55-.46-5.92-1.63-1.21-4.56-.43-6.39-.18-2.41.33-4.79.82-7.16,1.36-10.01,2.29-19.97,4.13-30.24,4.72-5.8.33-11.61.33-17.4.02-1.93-.1-1.92,2.9,0,3h0Z"/>
  </g>
  <g>
    <path class="cls-1" d="M53.31,109.17c4.35,1.12,8.25,3.48,12.14,5.71,6.74,3.84,13.69,7.33,20.8,10.44,6.53,2.86,13.57,5.45,20.64,4.48-.91-2.63-1.59-5.34-2.05-8.09-10.51-1.54-20.94-3.55-31.27-6.02-8.49-2.04-17.19-4.53-23.94-10.07"/>
    <path class="cls-1" d="M52.91,110.61c4.71,1.26,8.82,3.89,13.03,6.26s8.64,4.66,13.07,6.77c8.56,4.08,18.11,8.87,27.87,7.65.9-.11,1.79-.88,1.45-1.9-.9-2.64-1.58-5.34-2.05-8.09-.08-.46-.59-.98-1.05-1.05-10.1-1.48-20.14-3.39-30.08-5.74-8.56-2.02-17.5-4.32-24.47-9.97-1.49-1.21-3.62.9-2.12,2.12,5.5,4.46,12.07,7.08,18.84,8.98,7.64,2.14,15.46,3.75,23.25,5.21,4.58.86,9.17,1.62,13.78,2.29l-1.05-1.05c.47,2.75,1.15,5.45,2.05,8.09l1.45-1.9c-9.69,1.22-19.19-3.76-27.65-7.85-4.42-2.14-8.76-4.43-13.03-6.86-4.01-2.28-8.01-4.66-12.5-5.86-1.87-.5-2.66,2.39-.8,2.89h0Z"/>
  </g>
  <g>
    <path class="cls-2" d="M223.09,80.31l6,16.77c1.23,3.43,2.56,7.02,5.31,9.41,1.02.89,2.26,1.6,3.61,1.72,3.71.35,6.35-3.58,7.4-7.15,2.59-8.75,1.04-18.31-2.48-26.74-.62-1.48-1.31-3.09-.91-4.65.25-.99.93-1.82,1.61-2.58,4.94-5.49,11.73-9.6,14.76-16.35-4.39-1.57-9.33-1.15-13.68.52s-8.16,4.54-11.51,7.78c-5.55,5.36-10.15,12.36-10.27,20.07"/>
    <path class="cls-2" d="M221.64,80.71c1.39,3.88,2.78,7.76,4.17,11.64,1.22,3.42,2.29,6.96,3.89,10.23,1.4,2.85,3.59,5.78,6.72,6.82,2.91.97,5.8-.35,7.67-2.62,2.05-2.48,3.01-5.62,3.56-8.74.6-3.46.69-6.98.3-10.47-.41-3.67-1.24-7.27-2.47-10.75-.59-1.66-1.43-3.28-1.89-4.98-.54-2,.57-3.16,1.87-4.53,4.89-5.13,11.16-9.19,14.21-15.81.42-.91.08-1.87-.9-2.2-7.03-2.41-14.63-.31-20.61,3.74-5.6,3.79-10.7,9.07-13.81,15.11-1.76,3.42-2.83,7.12-2.92,10.97-.05,1.93,2.95,1.93,3,0,.19-7.9,5.14-14.72,10.75-19.88,6.09-5.6,14.44-9.9,22.8-7.04l-.9-2.2c-2.52,5.47-7.42,9.13-11.69,13.17-2.05,1.94-4.94,4.3-5,7.36-.03,1.63.65,3.12,1.25,4.6.67,1.64,1.26,3.32,1.76,5.02,1.91,6.49,2.52,13.5.67,20.08-.65,2.32-1.93,5.26-4.33,6.24-2.87,1.17-5.43-1.86-6.72-4.04-1.89-3.2-2.92-6.94-4.16-10.42l-4.33-12.11c-.65-1.8-3.55-1.03-2.89.8h0Z"/>
  </g>
  <path class="cls-2" d="M219.77,69.74c-2.52-5.93-7.3-12.67-13.96-14.24-7.79-1.83-12.64,5.03-17.98,9.29-1.32,1.05.43,3.34,1.82,2.36,2.83-2,5.92-3.59,9.23-4.64s7.35-1.98,10.89-1.15c6.7,1.57,10.41,8.16,11.08,14.59l2.8-.76c-3.66-6.18-7.83-12.83-14.82-15.57-6.53-2.56-14.41-.67-19.22,4.38-1.33,1.4.79,3.52,2.12,2.12,4.17-4.38,11.05-5.95,16.63-3.46,5.97,2.66,9.51,8.67,12.7,14.05.71,1.19,2.96.79,2.8-.76-.79-7.52-4.88-15.01-12.54-17.29-3.95-1.18-8.31-.46-12.2.64s-7.64,2.9-10.97,5.25l1.82,2.36c4.41-3.51,8.93-10.2,15.43-8.42,5.71,1.57,9.62,7.65,11.8,12.77.75,1.77,3.34.24,2.59-1.51h0Z"/>
  <path class="cls-2" d="M188.39,47.93c6.83,5.24,14.96,10.33,23.95,9.47,8.91-.85,18.04-7.78,27.07-4.12,1.79.73,2.57-2.18.8-2.89-9-3.65-17.74,2.31-26.45,3.82s-17.06-3.66-23.85-8.87c-1.53-1.17-3.03,1.43-1.51,2.59h0Z"/>
</svg>