<?xml version="1.0" encoding="UTF-8"?>
<svg id="Layer_1" data-name="Layer 1" xmlns="http://www.w3.org/2000/svg" viewBox="0 0 173.37 195.32">
  <defs>
    <style>
      .cls-1 {
        fill: #e6efa8;
      }

      .cls-1, .cls-2 {
        stroke-width: 0px;
      }

      .cls-2 {
        fill: #d9e021;
      }
    </style>
  </defs>
  <g>
    <path class="cls-2" d="M86.92,187.92c-25.5-7.93-48.22-24.53-63.52-46.43C8.1,119.6.32,92.55,1.65,65.88c.2-3.98.75-8.3,3.56-11.12,3.48-3.49,9.07-3.45,13.53-5.54,8.62-4.04,11.26-14.77,13.21-24.09,1.95-9.32,5.5-20.05,14.58-22.93,7.1-2.25,14.53,1.38,21.74,3.26,13.55,3.53,27.81.81,41.75-.42s29.24-.51,40.04,8.41c7.71,6.37,11.92,16.02,14.82,25.6,10.27,34.01,7.08,70.43,3.81,105.8-.75,8.12-1.64,16.64-6.26,23.37-4.5,6.56-11.92,10.46-19.31,13.39-16.89,6.71-35.26,9.68-53.41,8.64-2.8-.16-6.5-1.46-6.11-4.24"/>
    <path class="cls-2" d="M87.32,186.47c-17.43-5.45-33.53-14.94-46.81-27.47-13.91-13.13-24.5-29.51-30.77-47.59-3.23-9.31-5.36-19.02-6.25-28.84-.44-4.91-.59-9.84-.42-14.76.14-4.24.21-9.51,3.74-12.48,3.24-2.73,8.04-2.85,11.84-4.43s6.53-4.22,8.65-7.53c4.41-6.89,5.18-15.13,7.31-22.84,1.98-7.15,5.6-15.43,13.61-17.21,4.99-1.11,10.16.71,14.88,2.19,5.19,1.62,10.37,2.76,15.81,3.08,19.71,1.17,39.95-6.33,59.3.1,4.15,1.38,8.11,3.47,11.41,6.35,3.52,3.06,6.27,6.85,8.47,10.95,4.63,8.66,7.11,18.56,8.96,28.14,4.09,21.15,3.81,42.88,2.36,64.28-.71,10.54-1.5,21.14-2.75,31.63-.56,4.71-1.43,9.54-3.48,13.85-2,4.21-5.12,7.65-8.92,10.3s-8.07,4.62-12.39,6.3c-4.95,1.92-10.03,3.53-15.19,4.81-10.34,2.56-20.99,3.78-31.65,3.63-2.22-.03-4.61.09-6.79-.4-1.31-.3-3.29-.88-3.13-2.53.17-1.92-2.83-1.91-3,0-.41,4.49,5.19,5.62,8.53,5.79,5.54.28,11.09.18,16.62-.28,11.03-.92,21.95-3.25,32.37-6.99,8.94-3.21,18.36-7.34,23.98-15.39s6.13-19.36,7.03-29.18c2.04-22.3,3.82-44.78,1.95-67.15-.93-11.09-2.75-22.12-5.86-32.81-2.66-9.13-6.33-18.42-13.11-25.31C139.13-.06,116.79,2.84,98.22,4.76c-5.64.58-11.31,1.07-16.98.92s-11.07-1.13-16.48-2.8c-5.04-1.56-10.3-3.4-15.66-2.74-4.21.52-7.97,2.63-10.73,5.83-5.48,6.37-6.87,14.8-8.73,22.7s-4.62,16.69-12.67,19.67c-4.14,1.54-8.82,1.86-12.29,4.86S.38,61.38.15,65.88c-.52,10.25.33,20.58,2.39,30.64,4.05,19.8,12.99,38.54,25.93,54.06,12.13,14.55,27.73,26.27,45.07,33.9,4.23,1.86,8.56,3.49,12.98,4.88,1.85.58,2.64-2.32.8-2.89h0Z"/>
  </g>
  <g>
    <path class="cls-1" d="M162.24,167.89c2.24-6.52.58-10.49-.9-21.27-1.45-10.52-2.54-26.05-.08-45.89.19,5.42-1.97,10.89-5.81,14.72,0-8.21,0-16.43.01-24.64,0-10.78,0-21.58-.96-32.32-.75-8.3-2.42-17.23-8.58-22.83-.29,8.31-.16,16.63.4,24.92-1.6-9.31-7.64-17.41-15.08-23.23-7.44-5.82-16.24-9.62-25.05-13.03,16.59,8.12,25.32,29.47,19.17,46.89-3.1-4.71-8.84-7.55-14.47-7.15,13.82,16.26,25.33,36.73,22.6,57.9-1.34-5.55-7.03-9.69-12.72-9.27,13.85,23.16,13.8,53.96-.12,77.08.99.33,2.53.77,4.44,1.04,15.09,2.16,32.43-9.12,37.15-22.9Z"/>
    <path class="cls-1" d="M163.68,168.29c2.54-7.56-.07-15.53-1.05-23.14-1.08-8.42-1.49-16.92-1.29-25.4.15-6.36.64-12.7,1.41-19.01h-3c.12,5.1-1.79,10.01-5.38,13.66l2.56,1.06c0-11.81.09-23.62-.02-35.43-.06-5.88-.21-11.76-.62-17.63-.34-4.87-.77-9.79-1.99-14.54s-3.54-9.73-7.34-13.27c-.96-.89-2.52-.26-2.56,1.06-.28,8.31-.15,16.63.4,24.92l2.95-.4c-2.7-15.13-15.46-25.56-28.58-31.94-4.11-2-8.34-3.72-12.6-5.38-1.58-.61-2.67,1.99-1.16,2.74,12.48,6.19,20.34,19.84,20.4,33.66.02,3.94-.63,7.81-1.92,11.53l2.74-.36c-3.49-5.15-9.52-8.25-15.76-7.9-1.35.08-1.91,1.56-1.06,2.56,10.45,12.33,19.66,26.9,22.04,43.18.66,4.52.68,9.13.12,13.66l2.95-.4c-1.61-6.22-7.74-10.74-14.16-10.37-1.11.06-1.9,1.23-1.3,2.26,10.56,17.77,12.89,39.85,6.94,59.58-1.69,5.6-4.06,10.96-7.06,15.98-.52.86,0,1.91.9,2.2,13.56,4.38,29.03-2.41,37.77-13.02,2.44-2.97,4.4-6.25,5.67-9.89.64-1.83-2.26-2.61-2.89-.8-4.1,11.71-16.63,20.62-28.8,21.9-3.71.39-7.39.06-10.95-1.09l.9,2.2c11-18.39,13.54-41.39,7.44-61.87-1.74-5.84-4.2-11.48-7.31-16.72l-1.3,2.26c5.13-.3,9.98,3.18,11.27,8.17.46,1.76,2.75,1.17,2.95-.4,2.13-17.06-4.78-33.67-14.25-47.5-2.72-3.97-5.68-7.78-8.79-11.45l-1.06,2.56c5.16-.29,10.25,2.11,13.17,6.41.74,1.1,2.31.89,2.74-.36,4.92-14.14.55-30.6-9.79-41.22-2.91-2.99-6.33-5.51-10.07-7.37l-1.16,2.74c13.33,5.18,27.42,11.68,35.04,24.48,1.98,3.33,3.36,6.93,4.04,10.74.3,1.66,3.06,1.29,2.95-.4-.55-8.3-.68-16.61-.4-24.92l-2.56,1.06c6.83,6.35,7.79,16.42,8.42,25.19.82,11.34.68,22.72.68,34.08,0,6.49,0,12.98,0,19.47,0,1.29,1.65,1.99,2.56,1.06,4.12-4.19,6.4-9.9,6.25-15.78-.05-1.98-2.77-1.87-3,0-1.26,10.31-1.76,20.71-1.28,31.09.38,8.29,1.63,16.4,2.88,24.59.58,3.8.67,7.4-.57,11.08-.62,1.83,2.28,2.62,2.89.8Z"/>
  </g>
  <g>
    <path class="cls-1" d="M97,163.39c-13.47-4.25-16.6-3.43-23.62-7.87-2.6-1.65-11.94-7.72-16.87-19.12-8.34-19.26,2.57-38.25,3.95-40.57-6.81,10.06-10.64,22.1-10.9,34.24-4.84-22.54-5.33-46.01-1.43-68.73-3.89,2.29-7.31,5.39-9.97,9.05-1.03-13.77,4.32-27.12,9.58-39.88-16.02,21.7-20.37,50-19.64,76.96-3.23-6.04-8.74-10.83-15.18-13.17-2.75,9.05,4.45,17.68,9.6,25.61,1.39,2.14,2.69,4.48,2.73,7.03.03,2-.72,3.94-.95,5.93-.57,5.07,2.26,9.83,5.05,14.1,4.62,7.06,9.45,13.98,14.47,20.77,2.75,3.71,5.58,7.41,9.12,10.36,4.15,3.46,9.11,5.77,14.07,7.91,13.5,5.81,29.79,11.36,46.72,5.3,2.58-.92,14.85-5.31,14.76-11.02-.11-6.97-18.56-12.79-31.5-16.87Z"/>
    <path class="cls-1" d="M97.39,161.95c-3.56-1.12-7.16-2.11-10.79-3-2.33-.58-4.68-1.11-6.93-1.93-3.81-1.38-7.35-3.76-10.45-6.35-5.36-4.49-9.75-10.23-12.14-16.84-2.73-7.56-2.76-15.75-.85-23.5,1.18-4.79,2.99-9.5,5.51-13.75,1-1.68-1.52-3.1-2.59-1.51-6.94,10.33-10.8,22.56-11.11,35l2.95-.4c-3.7-17.34-4.83-35.18-3.35-52.85.42-5.05,1.07-10.08,1.92-15.08.21-1.23-.99-2.42-2.2-1.69-4.13,2.47-7.65,5.71-10.51,9.59l2.8.76c-.96-13.83,4.37-26.95,9.53-39.49.7-1.69-1.82-2.41-2.74-1.16-12.62,17.19-18.04,38.44-19.49,59.45-.42,6.08-.51,12.18-.35,18.27l2.8-.76c-3.49-6.42-9.24-11.31-16.08-13.86-.77-.29-1.64.32-1.85,1.05-2.22,7.7,1.91,14.99,6.04,21.22,1.08,1.63,2.19,3.23,3.26,4.86s2.28,3.47,2.78,5.48c.53,2.16-.25,4.2-.59,6.32s-.25,4.13.26,6.17c1.02,4.03,3.39,7.57,5.65,11,2.55,3.86,5.16,7.68,7.82,11.46,2.61,3.69,5.24,7.37,8,10.94,2.57,3.33,5.34,6.45,8.71,8.99s7.07,4.39,10.86,6.08,7.37,3.17,11.15,4.52c7.89,2.82,16.23,4.74,24.65,4.45,6.57-.23,12.89-1.91,18.88-4.55,2.42-1.07,4.8-2.3,6.91-3.92,1.84-1.41,3.66-3.25,4.07-5.63.85-4.97-4.77-8.35-8.45-10.3-6.09-3.23-12.75-5.42-19.3-7.53-1.58-.51-3.17-1.01-4.76-1.51-1.85-.58-2.64,2.31-.8,2.89,6.26,1.97,12.56,3.92,18.6,6.5,2.62,1.12,5.22,2.35,7.61,3.92,1.5.99,3.33,2.34,3.98,4.02,1.45,3.76-5.01,6.89-7.67,8.18-5.1,2.48-10.67,4.23-16.32,4.76-7.99.75-15.94-.68-23.54-3.13-3.58-1.15-7.09-2.51-10.55-3.98s-7.07-3.06-10.37-5.05c-7.1-4.26-11.77-11.01-16.53-17.61-2.56-3.55-5.07-7.15-7.53-10.77-2.29-3.39-4.74-6.77-6.6-10.42-.89-1.75-1.62-3.63-1.88-5.59s.21-3.86.59-5.82.46-3.87-.14-5.79c-.57-1.82-1.54-3.49-2.58-5.08-2.02-3.1-4.2-6.11-6.07-9.3-1.76-3-3.39-6.3-3.74-9.81-.18-1.76,0-3.47.48-5.17l-1.85,1.05c6.11,2.27,11.18,6.77,14.28,12.48.71,1.3,2.83.72,2.8-.76-.54-20.68,1.72-42.1,10.5-61.06,2.47-5.33,5.45-10.41,8.93-15.15l-2.74-1.16c-5.26,12.78-10.62,26.19-9.63,40.28.11,1.55,1.91,1.96,2.8.76,2.54-3.45,5.76-6.32,9.43-8.51l-2.2-1.69c-3.05,17.9-3.49,36.2-1.18,54.22.66,5.14,1.53,10.24,2.61,15.31.36,1.7,2.9,1.25,2.95-.4.3-11.94,4.05-23.58,10.7-33.49l-2.59-1.51c-6.29,10.59-9.09,24.07-6.02,36.11,1.95,7.66,6.31,14.54,12.06,19.92,3.35,3.14,7.25,6.03,11.45,7.91,2.47,1.11,5.06,1.82,7.69,2.47,4.12,1.02,8.22,2.1,12.27,3.37,1.85.58,2.64-2.32.8-2.89Z"/>
  </g>
</svg>