<?xml version="1.0" encoding="UTF-8"?>
<svg id="Layer_1" data-name="Layer 1" xmlns="http://www.w3.org/2000/svg" viewBox="0 0 88.5 129.83">
  <defs>
    <style>
      .cls-1 {
        fill: #d7ad83;
      }

      .cls-1, .cls-2 {
        stroke-width: 0px;
      }

      .cls-2 {
        fill: #a67c52;
      }
    </style>
  </defs>
  <g>
    <g>
      <path class="cls-1" d="M8.53,77.93c-3.2-6.19-6.39-12.61-6.95-19.56-.84-10.46,4.38-20.34,9.44-29.54,1.77-3.21,3.55-6.44,5.85-9.28,6.95-8.57,17.83-12.72,28.18-16.52,1.23-.45,2.5-.91,3.81-.86,2.86.11,5.04,2.51,6.85,4.73,3.4,4.16,6.81,8.34,9.56,12.97,3.21,5.4,5.44,11.32,7.66,17.2,5.02,13.29,10.12,27.1,9.1,41.27-.33,4.59-1.3,9.22-.47,13.74.64,3.49,2.32,7.15.89,10.39-.71,1.6-2.12,2.89-2.44,4.61-.31,1.71.55,3.55-.08,5.17-.38.98-1.23,1.68-2.08,2.3-8.61,6.3-20.15,8.39-30.42,5.53-1.84-.51-3.67-1.18-5.58-1.25-2.89-.1-5.63,1.17-8.24,2.41-3.51,1.67-7.02,3.34-10.53,5.01-1.06.51-2.2,1.02-3.36.84-2.57-.4-3.39-3.63-3.64-6.21-.5-5.17-1-10.33-1.5-15.5-.82-8.48-1.65-16.98-3.37-25.33-.13-.65-.31-1.35-.84-1.75s-1.5-.19-1.56.47"/>
      <path class="cls-1" d="M9.83,77.17c-2.61-5.06-5.21-10.21-6.33-15.84-1.09-5.5-.26-11.07,1.52-16.34,1.78-5.25,4.42-10.16,7.09-15.01s5.34-9.47,9.47-13.17c3.66-3.27,7.99-5.72,12.42-7.76,2.24-1.03,4.52-1.96,6.81-2.84s4.75-2.15,7.16-2.49c2.54-.37,4.44,1.61,5.96,3.37,1.82,2.11,3.55,4.3,5.24,6.51,3.52,4.6,6.42,9.5,8.74,14.81,2.3,5.27,4.26,10.71,6.2,16.11s3.82,11.14,5.05,16.89,1.8,11.56,1.33,17.4c-.24,2.93-.7,5.84-.75,8.79s.5,5.51,1.18,8.25c.31,1.25.61,2.51.6,3.8,0,1.42-.54,2.52-1.31,3.68-.61.94-1.26,1.88-1.56,2.98-.33,1.2-.14,2.37-.04,3.58.12,1.38-.1,2.2-1.19,3.1-1.03.85-2.22,1.57-3.37,2.23-2.23,1.29-4.59,2.31-7.05,3.06-4.77,1.46-9.86,1.92-14.81,1.24-2.66-.36-5.15-1.28-7.76-1.86-2.68-.59-5.27-.33-7.84.63-2.78,1.03-5.43,2.45-8.11,3.72-1.32.63-2.63,1.25-3.95,1.88s-2.93,1.79-4.37,1.72c-1.84-.1-2.31-2.78-2.51-4.2-.41-2.91-.58-5.87-.86-8.79-.58-5.94-1.11-11.89-1.8-17.82-.35-3.01-.74-6.01-1.22-9-.23-1.43-.47-2.85-.74-4.27-.23-1.21-.35-2.59-1.03-3.65-1.15-1.77-4.03-1.74-4.63.47-.51,1.86,2.38,2.66,2.89.8-.24.88-.62.09-.71.5-.03.15.18.62.21.78.16.71.29,1.42.42,2.13.31,1.66.59,3.32.85,4.99.47,3.05.84,6.11,1.18,9.17.69,6.26,1.25,12.54,1.86,18.81.26,2.63.3,5.4.94,7.97.51,2.03,1.62,4.17,3.74,4.87,2.66.88,5.43-1,7.74-2.1,2.84-1.35,5.67-2.72,8.52-4.06s5.56-2.35,8.63-1.67c2.68.59,5.23,1.5,7.96,1.88,5.15.72,10.42.37,15.43-1.04,2.59-.73,5.11-1.74,7.48-3,2.11-1.12,4.65-2.48,6.13-4.42.78-1.02,1.08-2.22,1.03-3.5s-.48-2.64.07-3.89c.48-1.09,1.31-1.98,1.85-3.04.62-1.21.92-2.54.93-3.9.01-2.74-1.03-5.32-1.51-7.98-.56-3.14-.19-6.39.15-9.54.65-6.01.57-11.88-.41-17.86s-2.74-11.9-4.73-17.66c-1.95-5.65-4.04-11.28-6.31-16.82s-4.94-10.82-8.45-15.68c-1.74-2.41-3.6-4.73-5.47-7.03-1.59-1.96-3.19-4.1-5.42-5.38-2.37-1.36-4.81-1.17-7.31-.28s-5,1.84-7.47,2.83c-4.7,1.89-9.34,4.01-13.55,6.86-4.36,2.94-8.02,6.59-10.87,11.02-3.16,4.9-5.95,10.2-8.4,15.5S.49,48.26.07,53.98s1.09,11.53,3.39,16.89c1.14,2.66,2.45,5.24,3.78,7.81.89,1.72,3.48.2,2.59-1.51h0Z"/>
    </g>
    <path class="cls-2" d="M13,28.94c10.9,31.48,22.66,64.3,47.08,86.96,1.82,1.69,3.81,3.37,6.23,3.94s5.37-.34,6.34-2.63c-11.56-18.71-23.13-37.43-33.56-56.79-8.19-15.21-15.89-31.93-13.73-49.07-6.63,4.43-11.88,10.88-14.86,18.27"/>
    <path class="cls-2" d="M30.1,7.66c5.72-2.44,11.43-4.87,17.15-7.31-6.6,9.13-4.85,21.7-2.04,32.61,6.96,26.98,19.87,54.12,43.29,69.22-3.29,4.63-7.05,8.92-11.22,12.78-3.23-3.63-5.91-7.69-8.59-11.75-9.57-14.5-19.17-29.06-26.5-44.8-7.33-15.75-12.35-32.84-12.21-50.21"/>
    <path class="cls-2" d="M8.93,37.93c-3.02,2.46-4.19,6.64-3.94,10.53s1.71,7.58,3.17,11.19c5.31,13.22,10.72,26.58,19.18,38.04s20.42,20.99,34.43,23.55c-8.6-3.21-14.78-10.7-20.26-18.07C26.56,83.05,13.35,60.74,9.34,36"/>
    <path class="cls-2" d="M45.51,17.44c11.6,3.15,20.49,13.21,24.52,24.54s3.77,23.78,1.81,35.64c-.29,1.77-.89,3.86-2.6,4.39"/>
    <path class="cls-2" d="M46.63,17.93c2.25,4.39,2.8,9.58,5.58,13.65,1.52,2.23,3.63,3.98,5.34,6.08,3.27,4.02,4.9,9.1,6.25,14.1,2.67,9.89,4.52,19.99,5.53,30.18"/>
    <path class="cls-2" d="M74.69,44.21c7.65,14.52,12.03,31.77,7.08,47.41-2.84-1.17-5.5-2.78-7.84-4.77-.37-.31-.75-.66-.89-1.12-.18-.6.08-1.24.33-1.82,2.55-5.83,4.92-11.83,5.71-18.15s-.14-13.04-3.73-18.3"/>
    <path class="cls-2" d="M9.62,73.41c.7,3.18.43,6.48.3,9.73-.56,15.16,2.38,30.43,8.53,44.29.17.38.36.78.71.99.51.31,1.15.13,1.72-.05,2.55-.82,5.1-1.64,7.65-2.47-4.45-12.84-8.91-25.68-13.36-38.53-1.59-4.58-3.18-9.17-5.17-13.59"/>
    <path class="cls-2" d="M26.78,104.94c1.4,6.85,5.15,13.2,10.49,17.72,1.71,1.45,3.69,2.76,5.93,2.88s4.68-1.34,4.93-3.56c-8.18-4.56-15.78-10.15-22.56-16.6"/>
  </g>
  <path class="cls-1" d="M27.77,9.8c-8.19,1.59-9.48,13.3-9.55,19.94-.09,9.27,2.62,18.35,6.64,26.63s9.48,15.99,14.95,23.48c2.86,3.93,5.76,7.85,8.18,12.06,2.22,3.87,4.01,7.97,6.37,11.76,2.72,4.38,6.33,7.97,10.29,11.24,1.54,1.27,3.3,3.24,5.32,3.68,1.91.41,3.71-.56,3.38-2.68-.29-1.9-3.18-1.09-2.89.8-.03-.21.58-.84.46-1-.02-.02-.25,0-.29-.04-.18-.12-.45-.17-.64-.29-.89-.56-1.71-1.36-2.53-2.02-1.54-1.25-3.05-2.54-4.49-3.9-2.96-2.82-5.35-5.98-7.34-9.55-1.98-3.54-3.66-7.24-5.76-10.71-2.23-3.7-4.79-7.18-7.33-10.66-9.65-13.22-19.68-27.54-21.14-44.35-.39-4.52-.16-9.1.95-13.51.83-3.31,2.5-7.26,6.22-7.98,1.89-.37,1.09-3.26-.8-2.89h0Z"/>
  <path class="cls-1" d="M51.44,1.94c-2.51-2.86-7.01-2.3-9.69,0-3.18,2.73-4.15,7.41-5.15,11.28-2.39,9.16-3.75,18.72-3.17,28.2.58,9.54,3.34,18.46,7.96,26.81,4.85,8.75,10.5,17.11,15.85,25.55,2.77,4.37,5.66,8.72,9.24,12.49,3.41,3.59,7.47,6.57,12.49,7.24.81.11,1.49-.77,1.5-1.5,0-.9-.7-1.39-1.5-1.5-4-.53-7.35-3.23-10.07-6.04-2.93-3.02-5.36-6.46-7.64-9.97-4.94-7.59-9.77-15.28-14.49-23s-8.26-15.3-9.69-24.06-.87-17.27.69-25.7c.85-4.58,1.83-9.35,3.52-13.71.68-1.76,1.74-3.67,3.51-4.53,1.51-.73,3.36-.74,4.52.58,1.27,1.46,3.39-.67,2.12-2.12h0Z"/>
  <path class="cls-1" d="M49.47,2.27c-3.62.72-5.9,3.93-7.44,7.03-1.85,3.73-3.21,7.71-4.02,11.8-1.62,8.18-1.21,16.79,1.39,24.72,2.8,8.53,8.03,16.01,12.78,23.54s9.73,15.82,14.92,23.51c4.52,6.71,10.16,13.4,18.34,15.47,1.87.47,2.67-2.42.8-2.89-6.69-1.69-11.51-6.93-15.36-12.37-4.84-6.84-9.1-14.14-13.57-21.22-4.58-7.25-9.66-14.41-13.22-22.25-3.27-7.21-4.55-15.18-3.84-23.05.39-4.31,1.41-8.57,2.99-12.59,1.29-3.29,3.14-8.02,7.04-8.8,1.89-.37,1.09-3.27-.8-2.89h0Z"/>
  <path class="cls-1" d="M21.55,13.52c-6.73,3.59-9.73,11.25-10.97,18.39-1.42,8.17-1.29,16.57.17,24.72,1.45,8.11,4.29,15.98,8.34,23.16,2.06,3.64,4.44,7.1,7.1,10.32,2.83,3.44,6.24,6.43,8.76,10.12,2.78,4.08,4.53,8.86,7.95,12.5,3.13,3.32,7.68,5.58,12.28,4.42,1.87-.47,1.08-3.36-.8-2.89-3.76.94-7.36-1.36-9.76-4.09-2.78-3.16-4.35-7.21-6.61-10.73s-5.36-6.48-8.15-9.63c-2.56-2.89-4.85-6.01-6.87-9.3-8.04-13.11-11.67-28.83-10.03-44.13.8-7.46,2.92-16.43,10.1-20.26,1.7-.91.19-3.5-1.51-2.59h0Z"/>
  <path class="cls-1" d="M11.04,32.8c-2.3,1.73-3.62,4.19-4.72,6.8s-1.85,5.43-2.23,8.28c-.76,5.72-.06,11.59,2.14,16.93.72,1.76,3.63.99,2.89-.8-1.94-4.72-2.69-9.79-2.18-14.87.24-2.45.82-4.87,1.66-7.19s1.94-5.06,3.95-6.57c1.53-1.15.03-3.75-1.51-2.59h0Z"/>
  <path class="cls-1" d="M42.9,18.35c8.89,15.53,17.9,31.28,23.04,48.53,1.44,4.84,2.56,9.77,3.28,14.76.28,1.9,3.17,1.09,2.89-.8-2.62-17.99-10.38-34.68-19.02-50.5-2.48-4.54-5.04-9.03-7.61-13.51-.96-1.68-3.55-.17-2.59,1.51h0Z"/>
  <path class="cls-1" d="M46.09,20.64c2.28-.46,4.37,2.01,5.81,3.45,1.54,1.54,3,3.16,4.37,4.86,2.74,3.39,5.09,7.1,7.06,10.98,3.97,7.82,6.35,16.49,6.88,25.25.3,4.93.02,9.88-.87,14.73-.35,1.89,2.54,2.7,2.89.8,3.48-18.93-1.77-38.93-13.84-53.88-1.69-2.09-3.52-4.08-5.48-5.93-2.12-2-4.57-3.77-7.63-3.15-1.89.39-1.09,3.28.8,2.89h0Z"/>
  <path class="cls-1" d="M8.68,73.8c2.46,9.1,3.09,18.52,4.34,27.82.61,4.57,1.36,9.13,2.56,13.58.6,2.22,1.31,4.4,2.17,6.53.77,1.92,1.56,3.94,2.84,5.59s3.21,2.83,5.39,2.43c1.98-.37,3.61-1.89,3.6-3.98,0-1.93-3.01-1.93-3,0,0,1.41-2.06,1.14-2.81.58-1.34-1.01-2.05-2.88-2.7-4.37-1.57-3.63-2.67-7.47-3.51-11.33-1.72-7.96-2.31-16.11-3.4-24.17-.61-4.54-1.39-9.05-2.59-13.47-.5-1.86-3.4-1.07-2.89.8h0Z"/>
  <path class="cls-1" d="M39.32,3.11c-8.17,5.4-10.53,15.32-10.71,24.56-.04,1.93,2.96,1.93,3,0,.15-8.09,2-17.19,9.22-21.97,1.6-1.06.1-3.66-1.51-2.59h0Z"/>
  <path class="cls-1" d="M75.65,58.52c.56,2.58,1.35,5.12,1.71,7.75s.39,5.27.22,7.9c-.33,5.34-1.51,10.58-2.67,15.78-.42,1.88,2.47,2.68,2.89.8,1.23-5.47,2.43-10.97,2.78-16.58.17-2.71.11-5.41-.25-8.1-.37-2.83-1.19-5.56-1.79-8.34-.41-1.89-3.3-1.09-2.89.8h0Z"/>
  <path class="cls-1" d="M26.45,21.3c-.32,10.11-.53,20.51,3.21,30.09,1.86,4.76,4.39,9.21,6.88,13.66s4.95,8.77,7.81,12.91c3.1,4.49,6.59,9.08,11.25,12.05,1.63,1.04,3.14-1.55,1.51-2.59-3.96-2.53-6.97-6.44-9.65-10.23s-5.2-8.08-7.55-12.26c-2.36-4.19-4.81-8.38-6.73-12.8s-3.08-9.26-3.55-14.13c-.53-5.55-.37-11.14-.19-16.71.06-1.93-2.94-1.93-3,0h0Z"/>
  <path class="cls-1" d="M15.69,19.58c-1.21,3.43-2.59,6.85-3.49,10.37s-1.02,7.11-.28,10.68c.39,1.89,3.28,1.09,2.89-.8-1.4-6.79,1.55-13.18,3.77-19.46.65-1.82-2.25-2.61-2.89-.8h0Z"/>
</svg>