<?xml version="1.0" encoding="UTF-8"?>
<svg id="Layer_1" data-name="Layer 1" xmlns="http://www.w3.org/2000/svg" viewBox="0 0 147.81 117.11">
  <defs>
    <style>
      .cls-1 {
        fill: #ff8c5f;
      }

      .cls-1, .cls-2 {
        stroke-width: 0px;
      }

      .cls-3 {
        opacity: .75;
      }

      .cls-2 {
        fill: #946400;
      }
    </style>
  </defs>
  <g class="cls-3">
    <path class="cls-1" d="M44.99,1.3c-10.53-4.74-22.05,4.32-28.89,13.62C2.22,33.8-5.74,59.85,4.95,80.71c5.28,10.3,14.5,18.09,24.48,23.95,28.12,16.49,66.79,17.79,91.61-3.35,9.52-8.11,16.49-18.91,21.3-30.45,5.82-13.94,8.38-30.72.57-43.65-8.13-13.45-24.83-18.76-40.32-21.43C82.98,2.39,63.04,1.5,43.16.62"/>
    <path class="cls-2" d="M80.47.6l-2.49,19.32c-.29,2.25-.03,5.32,2.21,5.73,1.54.28,2.87-1.04,3.78-2.31,3.3-4.58,5.21-10.14,5.42-15.78.05-1.22,0-2.49-.52-3.59-1.42-2.97-5.43-3.34-8.72-3.3"/>
  </g>
</svg>