<?xml version="1.0" encoding="UTF-8"?>
<svg id="Layer_1" data-name="Layer 1" xmlns="http://www.w3.org/2000/svg" viewBox="0 0 101.04 87.18">
  <defs>
    <style>
      .cls-1 {
        fill: #d45300;
      }

      .cls-1, .cls-2 {
        stroke-width: 0px;
      }

      .cls-2 {
        fill: #27c900;
      }

      .cls-3 {
        opacity: .75;
      }
    </style>
  </defs>
  <g class="cls-3">
    <path class="cls-1" d="M.18,43.29c-1.01,9.44,2.19,19.26,8.58,26.28,7.13,7.84,17.47,11.86,27.61,14.9,3.88,1.16,7.81,2.23,11.84,2.57,11.39.98,22.7-3.92,31.43-11.31,13.86-11.73,21.96-29.96,21.37-48.1-.17-5.38-1.14-10.91-4.11-15.39-3.39-5.12-9.06-8.35-14.91-10.19-8.66-2.72-18.15-2.75-26.82-.08-4.65,1.43-9.03,3.6-13.38,5.76C24.56,16.29,2.52,20.85.18,43.29Z"/>
    <path class="cls-2" d="M44.38,25.61c-1.25-.19-2.27,1.36-1.89,2.57s1.71,1.92,2.97,1.98,2.5-.39,3.68-.83c1.37-.51,2.81-1.08,3.75-2.21s1.13-3.02,0-3.97c-1.26-1.06-3.17-.36-4.6.44s-3.18,1.7-4.62.9"/>
  </g>
</svg>