<?xml version="1.0" encoding="UTF-8"?>
<svg id="Layer_1" data-name="Layer 1" xmlns="http://www.w3.org/2000/svg" viewBox="0 0 159.29 110.05">
  <defs>
    <style>
      .cls-1 {
        fill: #ffe60a;
      }

      .cls-1, .cls-2 {
        stroke-width: 0px;
      }

      .cls-2 {
        fill: #746200;
      }

      .cls-3 {
        opacity: .75;
      }
    </style>
  </defs>
  <g class="cls-3">
    <path class="cls-1" d="M77.12,108.38c31.37,7.01,66.44-8.65,82.16-36.69-12.71-1.58-25.45,1.51-38.14,3.28s-26.39,2.02-37.38-4.54c-11.93-7.11-19.16-21.4-32.36-25.7,22.74,4.41,42.75,23.8,65.59,19.97,15.22-2.55,27.18-15.57,32.05-30.21-30.12-.12-60.24-.23-90.36-.35,12.94.93,26.47,1.77,38.39-3.37,11.92-5.13,21.47-18.27,18-30.77-21.69,9.59-44.06,17.63-66.89,24.04-8.83,2.48-24.1,5.71-28.32,15.21-3.63,8.18,2.53,21,6.19,28.31,10.07,20.05,29.01,35.9,51.06,40.82Z"/>
    <path class="cls-2" d="M21.72,45.37c-.31-2.37-.65-4.82-1.85-6.89s-3.49-3.7-5.86-3.38c-1.12.15-2.15.71-3.14,1.26-2.47,1.37-4.95,2.75-7.42,4.12-.6-4.21-1.76-8.35-3.45-12.25,11.07-2.78,21.33-8.68,29.29-16.86,1.75,7.46-4.06,14.38-9.43,19.86.84,2.59,2.99,4.56,4.12,7.04s.56,6.23-2.11,6.79"/>
  </g>
</svg>