<?xml version="1.0" encoding="UTF-8"?>
<svg id="Layer_1" data-name="Layer 1" xmlns="http://www.w3.org/2000/svg" viewBox="0 0 104.7 99.14">
  <defs>
    <style>
      .cls-1 {
        fill: #d45300;
      }

      .cls-1, .cls-2 {
        stroke-width: 0px;
      }

      .cls-2 {
        fill: #27c900;
      }

      .cls-3 {
        opacity: .75;
      }
    </style>
  </defs>
  <g class="cls-3">
    <path class="cls-1" d="M9.03,76.99c7.65,8.34,18.2,13.37,28.76,17.42,7.74,2.97,15.97,5.55,24.19,4.48,6.88-.89,13.16-4.26,19.15-7.76,6.22-3.64,12.48-7.63,16.69-13.47,7.29-10.09,7.14-23.56,6.69-36-.25-7.06-.64-14.54-4.57-20.41-3.22-4.81-8.41-7.89-13.62-10.41C74.19,4.99,60.96,1.37,47.52.25c-5.36-.45-10.93-.48-15.88,1.61-7.05,2.96-11.71,9.65-15.76,16.13-11.85,18.95-25.17,39.03-6.85,59Z"/>
    <path class="cls-2" d="M51,14.27c-3.1,2.17-3.72,6.92-1.79,10.18s5.86,5.01,9.65,4.97c1.66-.02,3.39-.37,4.65-1.44,3.1-2.62,1.53-8.12-1.92-10.26s-7.8-1.91-11.85-1.61"/>
  </g>
</svg>